<svg xmlns="http://www.w3.org/2000/svg" viewBox="0 0 300 292">
  <!-- ESP32 Pinout Studio stacked lockup (light ink, for dark backgrounds).
       Source of truth: src/components/Logo.tsx -->
  <g transform="translate(86, 8) scale(2)">
    <g fill="#101d31">
      <rect x="16.7" y="3" width="4.6" height="10" rx="2.3"/><rect x="25.4" y="3" width="4.6" height="10" rx="2.3"/><rect x="34" y="3" width="4.6" height="10" rx="2.3"/><rect x="42.7" y="3" width="4.6" height="10" rx="2.3"/>
      <rect x="16.7" y="51" width="4.6" height="10" rx="2.3"/><rect x="25.4" y="51" width="4.6" height="10" rx="2.3"/><rect x="34" y="51" width="4.6" height="10" rx="2.3"/><rect x="42.7" y="51" width="4.6" height="10" rx="2.3"/>
      <rect x="3" y="16.7" width="10" height="4.6" rx="2.3"/><rect x="3" y="25.4" width="10" height="4.6" rx="2.3"/><rect x="3" y="34" width="10" height="4.6" rx="2.3"/><rect x="3" y="42.7" width="10" height="4.6" rx="2.3"/>
      <rect x="51" y="16.7" width="10" height="4.6" rx="2.3"/><rect x="51" y="25.4" width="10" height="4.6" rx="2.3"/><rect x="51" y="34" width="10" height="4.6" rx="2.3"/><rect x="51" y="42.7" width="10" height="4.6" rx="2.3"/>
    </g>
    <rect x="11" y="11" width="42" height="42" rx="10" fill="#101d31" stroke="rgba(148,163,184,0.45)" stroke-width="1.5"/>
    <g fill="#f8fafc">
      <circle cx="22.5" cy="22.5" r="3.3"/><circle cx="32" cy="22.5" r="3.3"/>
      <circle cx="22.5" cy="32" r="3.3"/><circle cx="41.5" cy="32" r="3.3"/>
      <circle cx="32" cy="41.5" r="3.3"/><circle cx="41.5" cy="41.5" r="3.3"/>
    </g>
    <g fill="#22c55e">
      <circle cx="41.5" cy="22.5" r="3.3"/><circle cx="32" cy="32" r="3.3"/><circle cx="22.5" cy="41.5" r="3.3"/>
    </g>
  </g>
  <text x="150" y="216" text-anchor="middle" font-family="'Helvetica Neue', Arial, sans-serif" font-size="56" font-weight="800" letter-spacing="1" fill="#f1f5f9">ESP<tspan fill="#22c55e">32</tspan></text>
  <text x="154" y="252" text-anchor="middle" font-family="'Helvetica Neue', Arial, sans-serif" font-size="17" font-weight="600" letter-spacing="8" fill="#f1f5f9" opacity="0.85">PINOUT STUDIO</text>
</svg>
